<svg width="48" height="48" viewBox="0 0 48 48" fill="none" xmlns="http://www.w3.org/2000/svg">
<rect width="48" height="48" rx="4" fill="#10B981"/>
<path d="M11.1666 33.3334V30.0667C11.1666 29.4056 11.3368 28.7979 11.677 28.2438C12.0173 27.6896 12.4694 27.2667 13.0333 26.975C14.2388 26.3722 15.4638 25.9202 16.7083 25.6188C17.9527 25.3174 19.2166 25.1667 20.5 25.1667C21.7833 25.1667 23.0472 25.3174 24.2916 25.6188C25.5361 25.9202 26.7611 26.3722 27.9666 26.975C28.5305 27.2667 28.9826 27.6896 29.3229 28.2438C29.6632 28.7979 29.8333 29.4056 29.8333 30.0667V33.3334H11.1666ZM32.1666 33.3334V29.8334C32.1666 28.9778 31.9284 28.1563 31.452 27.3688C30.9757 26.5813 30.3 25.9056 29.425 25.3417C30.4166 25.4584 31.35 25.6577 32.225 25.9396C33.1 26.2215 33.9166 26.5667 34.675 26.975C35.375 27.3639 35.9097 27.7965 36.2791 28.2729C36.6486 28.7493 36.8333 29.2695 36.8333 29.8334V33.3334H32.1666ZM20.5 24C19.2166 24 18.118 23.5431 17.2041 22.6292C16.2902 21.7153 15.8333 20.6167 15.8333 19.3334C15.8333 18.05 16.2902 16.9514 17.2041 16.0375C18.118 15.1236 19.2166 14.6667 20.5 14.6667C21.7833 14.6667 22.8819 15.1236 23.7958 16.0375C24.7097 16.9514 25.1666 18.05 25.1666 19.3334C25.1666 20.6167 24.7097 21.7153 23.7958 22.6292C22.8819 23.5431 21.7833 24 20.5 24ZM32.1666 19.3334C32.1666 20.6167 31.7097 21.7153 30.7958 22.6292C29.8819 23.5431 28.7833 24 27.5 24C27.2861 24 27.0138 23.9757 26.6833 23.9271C26.3527 23.8785 26.0805 23.825 25.8666 23.7667C26.3916 23.1445 26.7951 22.4542 27.077 21.6959C27.359 20.9375 27.5 20.15 27.5 19.3334C27.5 18.5167 27.359 17.7292 27.077 16.9709C26.7951 16.2125 26.3916 15.5222 25.8666 14.9C26.1388 14.8028 26.4111 14.7396 26.6833 14.7104C26.9555 14.6813 27.2277 14.6667 27.5 14.6667C28.7833 14.6667 29.8819 15.1236 30.7958 16.0375C31.7097 16.9514 32.1666 18.05 32.1666 19.3334Z" fill="#00422B"/>
</svg>
