<svg width="48" height="48" viewBox="0 0 48 48" fill="none" xmlns="http://www.w3.org/2000/svg">
<rect width="48" height="48" rx="4" fill="#10B981"/>
<path d="M22.8333 29.8333H25.1666V22.8333H22.8333V29.8333ZM24 20.5C24.3305 20.5 24.6076 20.3882 24.8312 20.1646C25.0548 19.941 25.1666 19.6639 25.1666 19.3333C25.1666 19.0028 25.0548 18.7257 24.8312 18.5021C24.6076 18.2785 24.3305 18.1666 24 18.1666C23.6694 18.1666 23.3923 18.2785 23.1687 18.5021C22.9451 18.7257 22.8333 19.0028 22.8333 19.3333C22.8333 19.6639 22.9451 19.941 23.1687 20.1646C23.3923 20.3882 23.6694 20.5 24 20.5ZM24 35.6666C22.3861 35.6666 20.8694 35.3604 19.45 34.7479C18.0305 34.1354 16.7958 33.3041 15.7458 32.2541C14.6958 31.2041 13.8646 29.9694 13.2521 28.55C12.6396 27.1305 12.3333 25.6139 12.3333 24C12.3333 22.3861 12.6396 20.8694 13.2521 19.45C13.8646 18.0305 14.6958 16.7958 15.7458 15.7458C16.7958 14.6958 18.0305 13.8646 19.45 13.2521C20.8694 12.6396 22.3861 12.3333 24 12.3333C25.6139 12.3333 27.1305 12.6396 28.55 13.2521C29.9694 13.8646 31.2041 14.6958 32.2541 15.7458C33.3041 16.7958 34.1354 18.0305 34.7479 19.45C35.3604 20.8694 35.6666 22.3861 35.6666 24C35.6666 25.6139 35.3604 27.1305 34.7479 28.55C34.1354 29.9694 33.3041 31.2041 32.2541 32.2541C31.2041 33.3041 29.9694 34.1354 28.55 34.7479C27.1305 35.3604 25.6139 35.6666 24 35.6666Z" fill="#00422B"/>
</svg>
